<svg width="64" height="65" viewBox="0 0 128 130" fill="none" xmlns="http://www.w3.org/2000/svg">
<path d="M37.0845 19.4314L1 41.2206V22.5441L37.0845 2H54.831V129H37.0845L1 101.608V82.3088L37.0845 109.701V19.4314Z" fill="black"/>
<path d="M70.8028 129V2H90.9155V54.2941H108.662V2L127 33.75V91.6471L108.662 129V71.1029H90.9155V129H70.8028Z" fill="black"/>
<path d="M37.0845 19.4314L1 41.2206V22.5441L37.0845 2H54.831V129H37.0845L1 101.608V82.3088L37.0845 109.701V19.4314Z" stroke="black"/>
<path d="M70.8028 129V2H90.9155V54.2941H108.662V2L127 33.75V91.6471L108.662 129V71.1029H90.9155V129H70.8028Z" stroke="black"/>
</svg>
